
            <svg id="trend-chart" width="660" height="400" title="Stack Overflow Trends Chart" version="1.1" xmlns="http://www.w3.org/2000/svg"><g></g><g class="chart-area" transform="translate(100, 20)"><g transform="translate(0,300)" fill="none" font-size="10" font-family="sans-serif" text-anchor="middle"><path class="domain" stroke="#000" d="M0.5,6V0.5H410.5V6"></path><g class="tick" opacity="1" transform="translate(12.346927062836153,0)"><line stroke="#000" y2="6" x1="0.5" x2="0.5"></line><text fill="#000" y="9" x="0.5" dy="0.71em" style="font-size: 12px;">2009</text></g><g class="tick" opacity="1" transform="translate(41.793995146267875,0)"><line stroke="#000" y2="6" x1="0.5" x2="0.5"></line><text fill="#000" y="9" x="0.5" dy="0.71em" style="font-size: 12px;">2010</text></g><g class="tick" opacity="1" transform="translate(71.24106322969959,0)"><line stroke="#000" y2="6" x1="0.5" x2="0.5"></line><text fill="#000" y="9" x="0.5" dy="0.71em" style="font-size: 12px;">2011</text></g><g class="tick" opacity="1" transform="translate(100.68813131313132,0)"><line stroke="#000" y2="6" x1="0.5" x2="0.5"></line><text fill="#000" y="9" x="0.5" dy="0.71em" style="font-size: 12px;">2012</text></g><g class="tick" opacity="1" transform="translate(130.21587629542174,0)"><line stroke="#000" y2="6" x1="0.5" x2="0.5"></line><text fill="#000" y="9" x="0.5" dy="0.71em" style="font-size: 12px;">2013</text></g><g class="tick" opacity="1" transform="translate(159.66294437885347,0)"><line stroke="#000" y2="6" x1="0.5" x2="0.5"></line><text fill="#000" y="9" x="0.5" dy="0.71em" style="font-size: 12px;">2014</text></g><g class="tick" opacity="1" transform="translate(189.1100124622852,0)"><line stroke="#000" y2="6" x1="0.5" x2="0.5"></line><text fill="#000" y="9" x="0.5" dy="0.71em" style="font-size: 12px;">2015</text></g><g class="tick" opacity="1" transform="translate(218.5570805457169,0)"><line stroke="#000" y2="6" x1="0.5" x2="0.5"></line><text fill="#000" y="9" x="0.5" dy="0.71em" style="font-size: 12px;">2016</text></g><g class="tick" opacity="1" transform="translate(248.08482552800734,0)"><line stroke="#000" y2="6" x1="0.5" x2="0.5"></line><text fill="#000" y="9" x="0.5" dy="0.71em" style="font-size: 12px;">2017</text></g><g class="tick" opacity="1" transform="translate(277.5318936114391,0)"><line stroke="#000" y2="6" x1="0.5" x2="0.5"></line><text fill="#000" y="9" x="0.5" dy="0.71em" style="font-size: 12px;">2018</text></g><g class="tick" opacity="1" transform="translate(306.97896169487075,0)"><line stroke="#000" y2="6" x1="0.5" x2="0.5"></line><text fill="#000" y="9" x="0.5" dy="0.71em" style="font-size: 12px;">2019</text></g><g class="tick" opacity="1" transform="translate(336.4260297783025,0)"><line stroke="#000" y2="6" x1="0.5" x2="0.5"></line><text fill="#000" y="9" x="0.5" dy="0.71em" style="font-size: 12px;">2020</text></g><g class="tick" opacity="1" transform="translate(365.953774760593,0)"><line stroke="#000" y2="6" x1="0.5" x2="0.5"></line><text fill="#000" y="9" x="0.5" dy="0.71em" style="font-size: 12px;">2021</text></g><g class="tick" opacity="1" transform="translate(395.4008428440247,0)"><line stroke="#000" y2="6" x1="0.5" x2="0.5"></line><text fill="#000" y="9" x="0.5" dy="0.71em" style="font-size: 12px;">2022</text></g></g><g class="grid-lines" transform="translate(0,300)" fill="none" font-size="10" font-family="sans-serif" text-anchor="middle"><path class="domain" stroke="#000" d="M0.5,-300V0.5H410.5V-300"></path><g class="tick" opacity="1" transform="translate(12.346927062836153,0)"><line stroke="#000" y2="-300" x1="0.5" x2="0.5" style="stroke: #ccc; fill: none;"></line></g><g class="tick" opacity="1" transform="translate(41.793995146267875,0)"><line stroke="#000" y2="-300" x1="0.5" x2="0.5" style="stroke: #ccc; fill: none;"></line></g><g class="tick" opacity="1" transform="translate(71.24106322969959,0)"><line stroke="#000" y2="-300" x1="0.5" x2="0.5" style="stroke: #ccc; fill: none;"></line></g><g class="tick" opacity="1" transform="translate(100.68813131313132,0)"><line stroke="#000" y2="-300" x1="0.5" x2="0.5" style="stroke: #ccc; fill: none;"></line></g><g class="tick" opacity="1" transform="translate(130.21587629542174,0)"><line stroke="#000" y2="-300" x1="0.5" x2="0.5" style="stroke: #ccc; fill: none;"></line></g><g class="tick" opacity="1" transform="translate(159.66294437885347,0)"><line stroke="#000" y2="-300" x1="0.5" x2="0.5" style="stroke: #ccc; fill: none;"></line></g><g class="tick" opacity="1" transform="translate(189.1100124622852,0)"><line stroke="#000" y2="-300" x1="0.5" x2="0.5" style="stroke: #ccc; fill: none;"></line></g><g class="tick" opacity="1" transform="translate(218.5570805457169,0)"><line stroke="#000" y2="-300" x1="0.5" x2="0.5" style="stroke: #ccc; fill: none;"></line></g><g class="tick" opacity="1" transform="translate(248.08482552800734,0)"><line stroke="#000" y2="-300" x1="0.5" x2="0.5" style="stroke: #ccc; fill: none;"></line></g><g class="tick" opacity="1" transform="translate(277.5318936114391,0)"><line stroke="#000" y2="-300" x1="0.5" x2="0.5" style="stroke: #ccc; fill: none;"></line></g><g class="tick" opacity="1" transform="translate(306.97896169487075,0)"><line stroke="#000" y2="-300" x1="0.5" x2="0.5" style="stroke: #ccc; fill: none;"></line></g><g class="tick" opacity="1" transform="translate(336.4260297783025,0)"><line stroke="#000" y2="-300" x1="0.5" x2="0.5" style="stroke: #ccc; fill: none;"></line></g><g class="tick" opacity="1" transform="translate(365.953774760593,0)"><line stroke="#000" y2="-300" x1="0.5" x2="0.5" style="stroke: #ccc; fill: none;"></line></g><g class="tick" opacity="1" transform="translate(395.4008428440247,0)"><line stroke="#000" y2="-300" x1="0.5" x2="0.5" style="stroke: #ccc; fill: none;"></line></g></g><text x="205" y="360" class="axis-label x-axis-label" style="text-anchor: middle; font-weight: bold;">Year</text><g fill="none" font-size="10" font-family="sans-serif" text-anchor="end"><path class="domain" stroke="#000" d="M-6,300.5H0.5V0.5H-6"></path><g class="tick" opacity="1" transform="translate(0,300)"><line stroke="#000" x2="-6" y1="0.5" y2="0.5"></line><text fill="#000" x="-9" y="0.5" dy="0.32em" style="font-size: 12px;">0.00%</text></g><g class="tick" opacity="1" transform="translate(0,278.57142857142856)"><line stroke="#000" x2="-6" y1="0.5" y2="0.5"></line><text fill="#000" x="-9" y="0.5" dy="0.32em" style="font-size: 12px;">0.50%</text></g><g class="tick" opacity="1" transform="translate(0,257.14285714285717)"><line stroke="#000" x2="-6" y1="0.5" y2="0.5"></line><text fill="#000" x="-9" y="0.5" dy="0.32em" style="font-size: 12px;">1.00%</text></g><g class="tick" opacity="1" transform="translate(0,235.71428571428572)"><line stroke="#000" x2="-6" y1="0.5" y2="0.5"></line><text fill="#000" x="-9" y="0.5" dy="0.32em" style="font-size: 12px;">1.50%</text></g><g class="tick" opacity="1" transform="translate(0,214.28571428571428)"><line stroke="#000" x2="-6" y1="0.5" y2="0.5"></line><text fill="#000" x="-9" y="0.5" dy="0.32em" style="font-size: 12px;">2.00%</text></g><g class="tick" opacity="1" transform="translate(0,192.85714285714286)"><line stroke="#000" x2="-6" y1="0.5" y2="0.5"></line><text fill="#000" x="-9" y="0.5" dy="0.32em" style="font-size: 12px;">2.50%</text></g><g class="tick" opacity="1" transform="translate(0,171.42857142857144)"><line stroke="#000" x2="-6" y1="0.5" y2="0.5"></line><text fill="#000" x="-9" y="0.5" dy="0.32em" style="font-size: 12px;">3.00%</text></g><g class="tick" opacity="1" transform="translate(0,150)"><line stroke="#000" x2="-6" y1="0.5" y2="0.5"></line><text fill="#000" x="-9" y="0.5" dy="0.32em" style="font-size: 12px;">3.50%</text></g><g class="tick" opacity="1" transform="translate(0,128.57142857142858)"><line stroke="#000" x2="-6" y1="0.5" y2="0.5"></line><text fill="#000" x="-9" y="0.5" dy="0.32em" style="font-size: 12px;">4.00%</text></g><g class="tick" opacity="1" transform="translate(0,107.14285714285717)"><line stroke="#000" x2="-6" y1="0.5" y2="0.5"></line><text fill="#000" x="-9" y="0.5" dy="0.32em" style="font-size: 12px;">4.50%</text></g><g class="tick" opacity="1" transform="translate(0,85.71428571428572)"><line stroke="#000" x2="-6" y1="0.5" y2="0.5"></line><text fill="#000" x="-9" y="0.5" dy="0.32em" style="font-size: 12px;">5.00%</text></g><g class="tick" opacity="1" transform="translate(0,64.28571428571428)"><line stroke="#000" x2="-6" y1="0.5" y2="0.5"></line><text fill="#000" x="-9" y="0.5" dy="0.32em" style="font-size: 12px;">5.50%</text></g><g class="tick" opacity="1" transform="translate(0,42.85714285714289)"><line stroke="#000" x2="-6" y1="0.5" y2="0.5"></line><text fill="#000" x="-9" y="0.5" dy="0.32em" style="font-size: 12px;">6.00%</text></g><g class="tick" opacity="1" transform="translate(0,21.428571428571445)"><line stroke="#000" x2="-6" y1="0.5" y2="0.5"></line><text fill="#000" x="-9" y="0.5" dy="0.32em" style="font-size: 12px;">6.50%</text></g><g class="tick" opacity="1" transform="translate(0,0)"><line stroke="#000" x2="-6" y1="0.5" y2="0.5"></line><text fill="#000" x="-9" y="0.5" dy="0.32em" style="font-size: 12px;">7.00%</text></g></g><g class="grid-lines" fill="none" font-size="10" font-family="sans-serif" text-anchor="end"><path class="domain" stroke="#000" d="M410,300.5H0.5V0.5H410"></path><g class="tick" opacity="1" transform="translate(0,300)"><line stroke="#000" x2="410" y1="0.5" y2="0.5" style="stroke: #ccc; fill: none;"></line></g><g class="tick" opacity="1" transform="translate(0,278.57142857142856)"><line stroke="#000" x2="410" y1="0.5" y2="0.5" style="stroke: #ccc; fill: none;"></line></g><g class="tick" opacity="1" transform="translate(0,257.14285714285717)"><line stroke="#000" x2="410" y1="0.5" y2="0.5" style="stroke: #ccc; fill: none;"></line></g><g class="tick" opacity="1" transform="translate(0,235.71428571428572)"><line stroke="#000" x2="410" y1="0.5" y2="0.5" style="stroke: #ccc; fill: none;"></line></g><g class="tick" opacity="1" transform="translate(0,214.28571428571428)"><line stroke="#000" x2="410" y1="0.5" y2="0.5" style="stroke: #ccc; fill: none;"></line></g><g class="tick" opacity="1" transform="translate(0,192.85714285714286)"><line stroke="#000" x2="410" y1="0.5" y2="0.5" style="stroke: #ccc; fill: none;"></line></g><g class="tick" opacity="1" transform="translate(0,171.42857142857144)"><line stroke="#000" x2="410" y1="0.5" y2="0.5" style="stroke: #ccc; fill: none;"></line></g><g class="tick" opacity="1" transform="translate(0,150)"><line stroke="#000" x2="410" y1="0.5" y2="0.5" style="stroke: #ccc; fill: none;"></line></g><g class="tick" opacity="1" transform="translate(0,128.57142857142858)"><line stroke="#000" x2="410" y1="0.5" y2="0.5" style="stroke: #ccc; fill: none;"></line></g><g class="tick" opacity="1" transform="translate(0,107.14285714285717)"><line stroke="#000" x2="410" y1="0.5" y2="0.5" style="stroke: #ccc; fill: none;"></line></g><g class="tick" opacity="1" transform="translate(0,85.71428571428572)"><line stroke="#000" x2="410" y1="0.5" y2="0.5" style="stroke: #ccc; fill: none;"></line></g><g class="tick" opacity="1" transform="translate(0,64.28571428571428)"><line stroke="#000" x2="410" y1="0.5" y2="0.5" style="stroke: #ccc; fill: none;"></line></g><g class="tick" opacity="1" transform="translate(0,42.85714285714289)"><line stroke="#000" x2="410" y1="0.5" y2="0.5" style="stroke: #ccc; fill: none;"></line></g><g class="tick" opacity="1" transform="translate(0,21.428571428571445)"><line stroke="#000" x2="410" y1="0.5" y2="0.5" style="stroke: #ccc; fill: none;"></line></g><g class="tick" opacity="1" transform="translate(0,0)"><line stroke="#000" x2="410" y1="0.5" y2="0.5" style="stroke: #ccc; fill: none;"></line></g></g><g class="lines"><path class="line" d="M2.500983864620228,300L4.921290830381739,300L7.425636232454415,300L9.845943198215926,300L12.346927062836153,300L14.847910927456383,300L17.10686409550046,300L19.60448642266824,300L22.024793388429753,300L24.52577725304998,300L26.946084218811492,300L29.447068083431716,300L31.948051948051948,300L34.36835891381346,300L36.87270431588613,300L39.293011281647644,300L41.793995146267875,300L44.2949790108881,300L46.55393217893218,300L49.05155450609996,300L51.47186147186147,300L53.972845336481704,300L56.39315230224321,300L58.89413616686343,300L61.39512003148367,300L63.815426997245176,300L66.31977239931786,300L68.74007936507935,300L71.24106322969959,300L73.74204709431982,300L76.0010002623639,300L78.49862258953168,300L80.91892955529319,300L83.41991341991341,300L85.84022038567494,300L88.34120425029516,300L90.84218811491539,300L93.2624950806769,300L95.76684048274957,300L98.18714744851108,300L100.68813131313132,300L103.18911517775153,300L105.52874524465435,300L108.02636757182212,300L110.44667453758363,300L112.94765840220386,300L115.36796536796538,300L117.8689492325856,300L120.36993309720583,300L122.79024006296734,300L125.29458546504002,300L127.71489243080153,300L130.21587629542174,300L132.71686016004196,300L134.97581332808605,300L137.47343565525384,299.97485558725714L139.89374262101535,299.9741157062571L142.39472648563557,299.9455173491143L144.81503345139708,299.95121776714285L147.3160173160173,299.9747142073286L149.81700118063753,299.7660763994571L152.23730814639904,299.88319630962854L154.74165354847173,299.8293350324143L157.16196051423324,299.45394645038573L159.66294437885347,298.9286853982286L162.16392824347372,298.9239524371714L164.42288141151778,299.0674219398L166.92050373868557,299.26888384414286L169.34081070444705,298.41305106805714L171.8417945690673,298.20186847024286L174.2621015348288,298.0584016600714L176.76308539944904,298.0262292206143L179.26406926406926,297.53859865945714L181.68437622983078,296.68893406915714L184.18872163190346,295.94486043347143L186.60902859766497,295.28777380577145L189.1100124622852,294.83304772294287L191.61099632690542,291.5477734359429L193.8699494949495,291.39159389524286L196.36757182211727,289.68234188117145L198.78787878787878,289.8028867818857L201.288862652499,287.96741097265715L203.70916961826055,285.8493169333714L206.21015348288077,285.68313106594286L208.711137347501,281.93945347427143L211.1314443132625,280.8752025932143L213.63578971533516,277.02724293025716L216.05609668109668,274.8034569557143L218.5570805457169,272.65644865992857L221.05806441033712,273.7518568555714L223.39769447723995,268.89473481265713L225.8953168044077,267.3499918393286L228.31562377016922,265.0987462161857L230.81660763478945,261.07221807064286L233.236914600551,255.76572943778572L235.7378984651712,251.91140848894287L238.23888232979144,253.32597598975715L240.65918929555295,253.46415679075716L243.1635346976256,251.56297060697145L245.58384166338712,246.1223271102857L248.08482552800734,244.9771227539143L250.58580939262757,244.0071331010143L252.84476256067168,244.4077168099286L255.34238488783944,236.45555682917143L257.7626918536009,230.01798632052856L260.2636757182212,226.53893290945717L262.68398268398266,220.10146151755714L265.1849665486029,219.46007517385715L267.68595041322317,224.33960619235714L270.10625737898465,219.7593713679L272.61060278105737,220.02143684922856L275.03090974681885,215.5251549300857L277.5318936114391,211.20962714344287L280.0328774760593,207.73406977680003L282.29183064410336,204.70071384767147L284.78945297127115,202.04157749382858L287.2097599370327,198.83141152058573L289.7107438016529,192.13015116188572L292.1310507674144,186.84932250797146L294.6320346320346,178.65603403225717L297.13301849665487,177.60344599392857L299.55332546241635,181.62729327394285L302.057670864489,181.14175859138575L304.47797783025055,172.02654750955713L306.97896169487075,169.06523083727146L309.479945559491,166.3550459423143L311.7388987275351,163.88906122298573L314.2365210547029,168.5504404301143L316.6568280204644,157.0835239333286L319.15781188508464,155.1036702167143L321.5781188508461,152.80659303805717L324.0791027154664,140.2288300031143L326.5800865800866,142.70336004338574L329.0003935458481,145.9517554335L331.50473894792077,139.9046696664L333.9250459136823,131.8122470154429L336.4260297783025,124.44915817294287L338.92701364292276,125.84511077160002L341.26664370982553,115.74573429004283L343.7642660369933,104.75073429402858L346.18457300275486,106.55277351677142L348.68555686737506,98.09120898492858L351.1058638331366,87.79953776914289L353.6068476977568,86.08466400565717L356.10783156237704,86.96741854637145L358.5281385281385,93.10702539102857L361.0324839302112,92.9888199871715L363.4527908959727,86.64667812355717L365.953774760593,75.15801961114289L368.4547586252132,86.27749115785716L370.71371179325723,78.17550343200003L373.211334120425,72.07796531704287L375.6316410861865,73.21671584207147L378.13262495080676,75.0189882100286L380.55293191656824,66.41199085114289L383.0539157811885,60.80089100927145L385.5548996458087,54.34287786317145L387.97520661157023,68.16613230870004L390.47955201364294,65.5737126319286L392.8998589794044,54.16033864350004L395.4008428440247,42.70276451588575L397.90182670864493,49.06550838432858L400.160779876689,48.13189459671432L402.6584022038567,25.338957890057145L405.07870916961826,29.987619651557168L407.57969303423846,34.11607978084294L410,30.818158107514307" data-legend="reactjs" style="stroke: rgb(31, 119, 180); fill: none;"></path><path class="line" d="M2.500983864620228,300L4.921290830381739,300L7.425636232454415,300L9.845943198215926,300L12.346927062836153,300L14.847910927456383,300L17.10686409550046,300L19.60448642266824,300L22.024793388429753,300L24.52577725304998,300L26.946084218811492,300L29.447068083431716,300L31.948051948051948,300L34.36835891381346,300L36.87270431588613,300L39.293011281647644,300L41.793995146267875,300L44.2949790108881,300L46.55393217893218,300L49.05155450609996,300L51.47186147186147,300L53.972845336481704,300L56.39315230224321,300L58.89413616686343,300L61.39512003148367,300L63.815426997245176,300L66.31977239931786,300L68.74007936507935,300L71.24106322969959,300L73.74204709431982,300L76.0010002623639,300L78.49862258953168,300L80.91892955529319,300L83.41991341991341,300L85.84022038567494,300L88.34120425029516,300L90.84218811491539,300L93.2624950806769,300L95.76684048274957,300L98.18714744851108,300L100.68813131313132,300L103.18911517775153,300L105.52874524465435,300L108.02636757182212,300L110.44667453758363,300L112.94765840220386,300L115.36796536796538,300L117.8689492325856,300L120.36993309720583,300L122.79024006296734,300L125.29458546504002,300L127.71489243080153,300L130.21587629542174,300L132.71686016004196,300L134.97581332808605,300L137.47343565525384,300L139.89374262101535,300L142.39472648563557,300L144.81503345139708,300L147.3160173160173,300L149.81700118063753,300L152.23730814639904,300L154.74165354847173,300L157.16196051423324,300L159.66294437885347,300L162.16392824347372,300L164.42288141151778,299.9792760431143L166.92050373868557,300L169.34081070444705,299.9023416042L171.8417945690673,300L174.2621015348288,299.92719006227145L176.76308539944904,300L179.26406926406926,299.94818102442855L181.68437622983078,299.9502095349L184.18872163190346,299.9225132567143L186.60902859766497,299.9168430672L189.1100124622852,299.8961416628143L191.61099632690542,299.97438719224283L193.8699494949495,299.95457305487145L196.36757182211727,299.88636940401426L198.78787878787878,299.74449146837145L201.288862652499,299.1503706221143L203.70916961826055,299.0286582606429L206.21015348288077,299.00114867905717L208.711137347501,298.76197866561427L211.1314443132625,299.12016670525713L213.63578971533516,298.42652348841426L216.05609668109668,298.02330993L218.5570805457169,296.9724228246L221.05806441033712,297.2949511869L223.39769447723995,297.36504984985714L225.8953168044077,295.95991829082857L228.31562377016922,296.60111972957145L230.81660763478945,296.5058798148L233.236914600551,296.1386658846429L235.7378984651712,294.8128090305L238.23888232979144,294.1752028383L240.65918929555295,292.20290219824284L243.1635346976256,290.0755933659857L245.58384166338712,288.0301459042714L248.08482552800734,287.1743827059857L250.58580939262757,287.42815648367144L252.84476256067168,285.1038438093L255.34238488783944,285.88170336565713L257.7626918536009,283.5827482819714L260.2636757182212,282.8906335319571L262.68398268398266,281.5415123445857L265.1849665486029,281.0967771834857L267.68595041322317,276.5412747242143L270.10625737898465,279.4502605595143L272.61060278105737,277.7780432730857L275.03090974681885,276.39585900621427L277.5318936114391,276.8443343736L280.0328774760593,273.2787912777L282.29183064410336,270.18611772857145L284.78945297127115,269.8425525491143L287.2097599370327,270.03177665065715L289.7107438016529,267.88886102764286L292.1310507674144,266.2747440736714L294.6320346320346,262.1742324293143L297.13301849665487,260.38430532664285L299.55332546241635,262.17484708504287L302.057670864489,261.03816982872854L304.47797783025055,260.5401498225857L306.97896169487075,257.9449852933714L309.479945559491,258.9514832632714L311.7388987275351,256.08628451665714L314.2365210547029,257.8727235322286L316.6568280204644,258.0552487880143L319.15781188508464,252.89510179414287L321.5781188508461,254.20330131047143L324.0791027154664,249.55261748614288L326.5800865800866,249.26119688117143L329.0003935458481,250.69773789621428L331.50473894792077,254.42968413548573L333.9250459136823,247.88272195620002L336.4260297783025,249.03267401288574L338.92701364292276,250.07520053477143L341.26664370982553,249.94296363540002L343.7642660369933,248.50282875672858L346.18457300275486,249.57382849225715L348.68555686737506,252.53204401804288L351.1058638331366,250.1364102386143L353.6068476977568,248.64282117437142L356.10783156237704,244.64820588055716L358.5281385281385,249.50481153548571L361.0324839302112,248.5994826855857L363.4527908959727,247.3149894716143L365.953774760593,248.1609174096857L368.4547586252132,249.4921299018L370.71371179325723,248.4837784367143L373.211334120425,247.3001639339143L375.6316410861865,248.50814321052857L378.13262495080676,247.90371276668571L380.55293191656824,246.9908163762L383.0539157811885,250.3099139616857L385.5548996458087,246.00540555364285L387.97520661157023,249.18500208034285L390.47955201364294,250.26496110038573L392.8998589794044,252.40249458754286L395.4008428440247,253.8396507292286L397.90182670864493,255.1130787061286L400.160779876689,257.7687285988714L402.6584022038567,256.6715324855571L405.07870916961826,258.9032823021429L407.57969303423846,257.74797875185715L410,262.466236101" data-legend="vue.js" style="stroke: rgb(255, 127, 14); fill: none;"></path><path class="line" d="M2.500983864620228,300L4.921290830381739,300L7.425636232454415,300L9.845943198215926,300L12.346927062836153,300L14.847910927456383,300L17.10686409550046,300L19.60448642266824,300L22.024793388429753,300L24.52577725304998,300L26.946084218811492,300L29.447068083431716,300L31.948051948051948,300L34.36835891381346,300L36.87270431588613,300L39.293011281647644,300L41.793995146267875,300L44.2949790108881,300L46.55393217893218,300L49.05155450609996,300L51.47186147186147,300L53.972845336481704,300L56.39315230224321,300L58.89413616686343,300L61.39512003148367,300L63.815426997245176,300L66.31977239931786,300L68.74007936507935,300L71.24106322969959,300L73.74204709431982,300L76.0010002623639,300L78.49862258953168,300L80.91892955529319,300L83.41991341991341,300L85.84022038567494,300L88.34120425029516,300L90.84218811491539,300L93.2624950806769,300L95.76684048274957,300L98.18714744851108,300L100.68813131313132,300L103.18911517775153,300L105.52874524465435,300L108.02636757182212,300L110.44667453758363,300L112.94765840220386,300L115.36796536796538,300L117.8689492325856,300L120.36993309720583,300L122.79024006296734,300L125.29458546504002,300L127.71489243080153,300L130.21587629542174,300L132.71686016004196,300L134.97581332808605,300L137.47343565525384,299.97485558725714L139.89374262101535,300L142.39472648563557,300L144.81503345139708,300L147.3160173160173,300L149.81700118063753,300L152.23730814639904,300L154.74165354847173,299.97561929035714L157.16196051423324,300L159.66294437885347,300L162.16392824347372,300L164.42288141151778,300L166.92050373868557,300L169.34081070444705,299.97558540107144L171.8417945690673,300L174.2621015348288,299.9757300207857L176.76308539944904,299.9736830562857L179.26406926406926,300L181.68437622983078,299.9751047674714L184.18872163190346,299.9483421711429L186.60902859766497,299.9722810224L189.1100124622852,299.9740354157143L191.61099632690542,299.92316157672855L193.8699494949495,299.523017076L196.36757182211727,299.68183433117144L198.78787878787878,299.0476500183857L201.288862652499,298.62222263048574L203.70916961826055,298.5871392882L206.21015348288077,298.28768344975714L208.711137347501,298.1308305343286L211.1314443132625,297.17527205374284L213.63578971533516,294.57755786764284L216.05609668109668,289.11569391831426L218.5570805457169,278.23481920358574L221.05806441033712,275.35654682944283L223.39769447723995,270.5228340924L225.8953168044077,266.51562713854287L228.31562377016922,257.2288556571L230.81660763478945,248.71381983162857L233.236914600551,242.69095885727143L235.7378984651712,236.92090247605717L238.23888232979144,226.82440968248574L240.65918929555295,216.55131403307144L243.1635346976256,219.00005431268573L245.58384166338712,213.0386101107L248.08482552800734,211.17525732822855L250.58580939262757,202.3150469406857L252.84476256067168,203.19644896242858L255.34238488783944,200.32434142868573L257.7626918536009,197.6240588486143L260.2636757182212,189.5293104076286L262.68398268398266,181.6683392415L265.1849665486029,176.33633589685718L267.68595041322317,176.86170827914287L270.10625737898465,178.1766684159L272.61060278105737,169.84282488518573L275.03090974681885,172.48406050757146L277.5318936114391,170.13395921404287L280.0328774760593,174.62239209017145L282.29183064410336,177.8156512452L284.78945297127115,171.85748918828574L287.2097599370327,168.47566804165714L289.7107438016529,165.57670931935715L292.1310507674144,168.84622695308573L294.6320346320346,163.33385716847144L297.13301849665487,168.88017229971427L299.55332546241635,170.93992889524287L302.057670864489,174.73031818345714L304.47797783025055,170.90944933632858L306.97896169487075,173.22419840507143L309.479945559491,169.8251878919143L311.7388987275351,172.4668017166286L314.2365210547029,178.09136258712857L316.6568280204644,175.8309041807143L319.15781188508464,169.17437979617145L321.5781188508461,176.72552166934287L324.0791027154664,179.6170815513429L326.5800865800866,173.02598643792857L329.0003935458481,179.786641191L331.50473894792077,175.85815812912858L333.9250459136823,178.50200425920002L336.4260297783025,189.7971839027143L338.92701364292276,180.6042303285L341.26664370982553,189.81905513764286L343.7642660369933,195.9884878472143L346.18457300275486,199.44919342868573L348.68555686737506,201.86598171792858L351.1058638331366,192.92230698385714L353.6068476977568,202.76840760668574L356.10783156237704,202.83635919068573L358.5281385281385,209.4747890186143L361.0324839302112,215.96575860865715L363.4527908959727,214.79417464452857L365.953774760593,217.8236235457286L368.4547586252132,219.44355958980003L370.71371179325723,214.0622354654143L373.211334120425,220.79170247108573L375.6316410861865,215.76989133437144L378.13262495080676,213.07247640835715L380.55293191656824,212.1611757263143L383.0539157811885,211.93759544070002L385.5548996458087,210.68952803485715L387.97520661157023,217.00115029740002L390.47955201364294,222.03941895115716L392.8998589794044,220.4123178337286L395.4008428440247,221.4937125540857L397.90182670864493,219.99916470025715L400.160779876689,221.50086823062858L402.6584022038567,227.66218021675715L405.07870916961826,224.1175227225L407.57969303423846,220.78920553255716L410,225.32219978237146" data-legend="angular" style="stroke: rgb(44, 160, 44); fill: none;"></path><path class="line" d="M2.500983864620228,300L4.921290830381739,300L7.425636232454415,300L9.845943198215926,300L12.346927062836153,300L14.847910927456383,300L17.10686409550046,300L19.60448642266824,300L22.024793388429753,300L24.52577725304998,300L26.946084218811492,300L29.447068083431716,300L31.948051948051948,300L34.36835891381346,299.8808696515714L36.87270431588613,300L39.293011281647644,300L41.793995146267875,300L44.2949790108881,300L46.55393217893218,300L49.05155450609996,300L51.47186147186147,300L53.972845336481704,300L56.39315230224321,300L58.89413616686343,300L61.39512003148367,300L63.815426997245176,300L66.31977239931786,300L68.74007936507935,300L71.24106322969959,300L73.74204709431982,300L76.0010002623639,299.9573050977857L78.49862258953168,300L80.91892955529319,299.9571016747714L83.41991341991341,300L85.84022038567494,299.91450543535717L88.34120425029516,299.95988248242855L90.84218811491539,299.9157416977714L93.2624950806769,299.87285765142855L95.76684048274957,299.9605613954143L98.18714744851108,299.9585817279429L100.68813131313132,299.9630239050857L103.18911517775153,299.8959079086L105.52874524465435,299.7750314956286L108.02636757182212,299.6666085084L110.44667453758363,298.91295312274286L112.94765840220386,297.6322747263L115.36796536796538,297.1180215673286L117.8689492325856,294.6701535706714L120.36993309720583,293.9084971578429L122.79024006296734,291.74823392082857L125.29458546504002,291.17950151087143L127.71489243080153,289.11123940842856L130.21587629542174,283.2830822604L132.71686016004196,280.9016774412L134.97581332808605,277.00698481122856L137.47343565525384,271.88854655237145L139.89374262101535,268.23997156182855L142.39472648563557,265.83937788077145L144.81503345139708,259.46196449305717L147.3160173160173,251.40070648508572L149.81700118063753,248.84870601265715L152.23730814639904,248.18588295025717L154.74165354847173,246.97195649507142L157.16196051423324,243.9385022358L159.66294437885347,234.55863358002858L162.16392824347372,230.3316439641L164.42288141151778,227.5283227411286L166.92050373868557,221.96996663455715L169.34081070444705,211.0087868142L171.8417945690673,203.32398716275713L174.2621015348288,194.6682900586286L176.76308539944904,188.54774332208575L179.26406926406926,190.0660432844143L181.68437622983078,189.24111032738574L184.18872163190346,191.62187502424285L186.60902859766497,184.9662429051L189.1100124622852,179.5762579841143L191.61099632690542,181.66882810307143L193.8699494949495,179.6185953686143L196.36757182211727,178.52889285167146L198.78787878787878,166.69423061738573L201.288862652499,162.65855921228572L203.70916961826055,155.4025365265286L206.21015348288077,155.30925150364286L208.711137347501,157.02067333795716L211.1314443132625,159.48136142627143L213.63578971533516,160.1542491128143L216.05609668109668,157.9285288922143L218.5570805457169,153.10290901697144L221.05806441033712,158.94775129448573L223.39769447723995,162.5327226533143L225.8953168044077,162.96657637478572L228.31562377016922,158.63851653707144L230.81660763478945,158.28880349447144L233.236914600551,159.89222478831428L235.7378984651712,161.94457795778573L238.23888232979144,172.15704930737144L240.65918929555295,188.0524280804143L243.1635346976256,189.52308535487145L245.58384166338712,187.55268468634284L248.08482552800734,193.57674810227144L250.58580939262757,202.9819227264L252.84476256067168,204.33405166864287L255.34238488783944,211.3671257602286L257.7626918536009,215.1311563728L260.2636757182212,220.78727354361428L262.68398268398266,227.0805507223714L265.1849665486029,233.26552564375714L267.68595041322317,233.22670006817145L270.10625737898465,243.920574918L272.61060278105737,246.4420121282143L275.03090974681885,248.92218670191428L277.5318936114391,251.8264998331286L280.0328774760593,256.87847269680003L282.29183064410336,264.20331515687144L284.78945297127115,264.32789563890003L287.2097599370327,265.30403107054286L289.7107438016529,268.87128223748573L292.1310507674144,272.6559317892L294.6320346320346,275.08433136107146L297.13301849665487,275.48459289385715L299.55332546241635,277.2994969272857L302.057670864489,278.47380641318574L304.47797783025055,278.8408463661857L306.97896169487075,278.9434089574286L309.479945559491,280.60279628194286L311.7388987275351,283.5458437071L314.2365210547029,283.91915790745713L316.6568280204644,285.44422391207144L319.15781188508464,286.0572059621571L321.5781188508461,287.4943101507L324.0791027154664,288.65567654524284L326.5800865800866,289.83953879974285L329.0003935458481,289.8779669498571L331.50473894792077,290.99701264512856L333.9250459136823,290.0277479276571L336.4260297783025,290.2553779978286L338.92701364292276,291.58470206267145L341.26664370982553,291.70800339445714L343.7642660369933,291.7916773443429L346.18457300275486,292.97188134L348.68555686737506,293.04978469444285L351.1058638331366,292.6234208560286L353.6068476977568,294.1381073572286L356.10783156237704,293.24530839295716L358.5281385281385,294.0199051728L361.0324839302112,294.9720366240857L363.4527908959727,295.93489814665713L365.953774760593,295.4895673074L368.4547586252132,296.2234037313L370.71371179325723,294.60168044464285L373.211334120425,295.43394922174286L375.6316410861865,295.134373983L378.13262495080676,294.51265824904283L380.55293191656824,295.16834326315717L383.0539157811885,294.8815714317857L385.5548996458087,294.63710574351427L387.97520661157023,294.98274553954286L390.47955201364294,296.36970518982855L392.8998589794044,295.9608362685L395.4008428440247,295.80360461177145L397.90182670864493,295.5207049930286L400.160779876689,295.2120690264857L402.6584022038567,295.8867336335571L405.07870916961826,295.6819760244L407.57969303423846,295.39581384475713L410,296.0127870618857" data-legend="angularjs" style="stroke: rgb(214, 39, 40); fill: none;"></path></g></g><g transform="translate(20, 150)"><text transform="rotate(-90)" x="-50" y="0" dy="1em" class="axis-label y-axis-label" style="text-anchor: middle; font-weight: bold;">% of Stack Overflow questions that month</text></g><g class="legend" transform="translate(530, 30)" style="font-size: 12px;"><text class="legend-title" style="font-weight: bold;">Tag</text><g class="legend-items" transform="translate(0,20)"><text y="0em" x="1em">reactjs</text><text y="1em" x="1em">angularjs</text><text y="2em" x="1em">angular</text><text y="3em" x="1em">vue.js</text><circle cy="-0.25em" cx="0" r="0.4em" style="fill: rgb(31, 119, 180);"></circle><circle cy="0.75em" cx="0" r="0.4em" style="fill: rgb(214, 39, 40);"></circle><circle cy="1.75em" cx="0" r="0.4em" style="fill: rgb(44, 160, 44);"></circle><circle cy="2.75em" cx="0" r="0.4em" style="fill: rgb(255, 127, 14);"></circle></g><rect class="legend-box"></rect></g></svg>
        