
            <svg id="trend-chart" width="660" height="400" title="Stack Overflow Trends Chart" version="1.1" xmlns="http://www.w3.org/2000/svg"><g></g><g class="chart-area" transform="translate(100, 20)"><g transform="translate(0,300)" fill="none" font-size="10" font-family="sans-serif" text-anchor="middle"><path class="domain" stroke="#000" d="M0.5,6V0.5H410.5V6"></path><g class="tick" opacity="1" transform="translate(12.346927062836153,0)"><line stroke="#000" y2="6" x1="0.5" x2="0.5"></line><text fill="#000" y="9" x="0.5" dy="0.71em" style="font-size: 12px;">2009</text></g><g class="tick" opacity="1" transform="translate(41.793995146267875,0)"><line stroke="#000" y2="6" x1="0.5" x2="0.5"></line><text fill="#000" y="9" x="0.5" dy="0.71em" style="font-size: 12px;">2010</text></g><g class="tick" opacity="1" transform="translate(71.24106322969959,0)"><line stroke="#000" y2="6" x1="0.5" x2="0.5"></line><text fill="#000" y="9" x="0.5" dy="0.71em" style="font-size: 12px;">2011</text></g><g class="tick" opacity="1" transform="translate(100.68813131313132,0)"><line stroke="#000" y2="6" x1="0.5" x2="0.5"></line><text fill="#000" y="9" x="0.5" dy="0.71em" style="font-size: 12px;">2012</text></g><g class="tick" opacity="1" transform="translate(130.21587629542174,0)"><line stroke="#000" y2="6" x1="0.5" x2="0.5"></line><text fill="#000" y="9" x="0.5" dy="0.71em" style="font-size: 12px;">2013</text></g><g class="tick" opacity="1" transform="translate(159.66294437885347,0)"><line stroke="#000" y2="6" x1="0.5" x2="0.5"></line><text fill="#000" y="9" x="0.5" dy="0.71em" style="font-size: 12px;">2014</text></g><g class="tick" opacity="1" transform="translate(189.1100124622852,0)"><line stroke="#000" y2="6" x1="0.5" x2="0.5"></line><text fill="#000" y="9" x="0.5" dy="0.71em" style="font-size: 12px;">2015</text></g><g class="tick" opacity="1" transform="translate(218.5570805457169,0)"><line stroke="#000" y2="6" x1="0.5" x2="0.5"></line><text fill="#000" y="9" x="0.5" dy="0.71em" style="font-size: 12px;">2016</text></g><g class="tick" opacity="1" transform="translate(248.08482552800734,0)"><line stroke="#000" y2="6" x1="0.5" x2="0.5"></line><text fill="#000" y="9" x="0.5" dy="0.71em" style="font-size: 12px;">2017</text></g><g class="tick" opacity="1" transform="translate(277.5318936114391,0)"><line stroke="#000" y2="6" x1="0.5" x2="0.5"></line><text fill="#000" y="9" x="0.5" dy="0.71em" style="font-size: 12px;">2018</text></g><g class="tick" opacity="1" transform="translate(306.97896169487075,0)"><line stroke="#000" y2="6" x1="0.5" x2="0.5"></line><text fill="#000" y="9" x="0.5" dy="0.71em" style="font-size: 12px;">2019</text></g><g class="tick" opacity="1" transform="translate(336.4260297783025,0)"><line stroke="#000" y2="6" x1="0.5" x2="0.5"></line><text fill="#000" y="9" x="0.5" dy="0.71em" style="font-size: 12px;">2020</text></g><g class="tick" opacity="1" transform="translate(365.953774760593,0)"><line stroke="#000" y2="6" x1="0.5" x2="0.5"></line><text fill="#000" y="9" x="0.5" dy="0.71em" style="font-size: 12px;">2021</text></g><g class="tick" opacity="1" transform="translate(395.4008428440247,0)"><line stroke="#000" y2="6" x1="0.5" x2="0.5"></line><text fill="#000" y="9" x="0.5" dy="0.71em" style="font-size: 12px;">2022</text></g></g><g class="grid-lines" transform="translate(0,300)" fill="none" font-size="10" font-family="sans-serif" text-anchor="middle"><path class="domain" stroke="#000" d="M0.5,-300V0.5H410.5V-300"></path><g class="tick" opacity="1" transform="translate(12.346927062836153,0)"><line stroke="#000" y2="-300" x1="0.5" x2="0.5" style="stroke: #ccc; fill: none;"></line></g><g class="tick" opacity="1" transform="translate(41.793995146267875,0)"><line stroke="#000" y2="-300" x1="0.5" x2="0.5" style="stroke: #ccc; fill: none;"></line></g><g class="tick" opacity="1" transform="translate(71.24106322969959,0)"><line stroke="#000" y2="-300" x1="0.5" x2="0.5" style="stroke: #ccc; fill: none;"></line></g><g class="tick" opacity="1" transform="translate(100.68813131313132,0)"><line stroke="#000" y2="-300" x1="0.5" x2="0.5" style="stroke: #ccc; fill: none;"></line></g><g class="tick" opacity="1" transform="translate(130.21587629542174,0)"><line stroke="#000" y2="-300" x1="0.5" x2="0.5" style="stroke: #ccc; fill: none;"></line></g><g class="tick" opacity="1" transform="translate(159.66294437885347,0)"><line stroke="#000" y2="-300" x1="0.5" x2="0.5" style="stroke: #ccc; fill: none;"></line></g><g class="tick" opacity="1" transform="translate(189.1100124622852,0)"><line stroke="#000" y2="-300" x1="0.5" x2="0.5" style="stroke: #ccc; fill: none;"></line></g><g class="tick" opacity="1" transform="translate(218.5570805457169,0)"><line stroke="#000" y2="-300" x1="0.5" x2="0.5" style="stroke: #ccc; fill: none;"></line></g><g class="tick" opacity="1" transform="translate(248.08482552800734,0)"><line stroke="#000" y2="-300" x1="0.5" x2="0.5" style="stroke: #ccc; fill: none;"></line></g><g class="tick" opacity="1" transform="translate(277.5318936114391,0)"><line stroke="#000" y2="-300" x1="0.5" x2="0.5" style="stroke: #ccc; fill: none;"></line></g><g class="tick" opacity="1" transform="translate(306.97896169487075,0)"><line stroke="#000" y2="-300" x1="0.5" x2="0.5" style="stroke: #ccc; fill: none;"></line></g><g class="tick" opacity="1" transform="translate(336.4260297783025,0)"><line stroke="#000" y2="-300" x1="0.5" x2="0.5" style="stroke: #ccc; fill: none;"></line></g><g class="tick" opacity="1" transform="translate(365.953774760593,0)"><line stroke="#000" y2="-300" x1="0.5" x2="0.5" style="stroke: #ccc; fill: none;"></line></g><g class="tick" opacity="1" transform="translate(395.4008428440247,0)"><line stroke="#000" y2="-300" x1="0.5" x2="0.5" style="stroke: #ccc; fill: none;"></line></g></g><text x="205" y="360" class="axis-label x-axis-label" style="text-anchor: middle; font-weight: bold;">Year</text><g fill="none" font-size="10" font-family="sans-serif" text-anchor="end"><path class="domain" stroke="#000" d="M-6,300.5H0.5V0.5H-6"></path><g class="tick" opacity="1" transform="translate(0,300)"><line stroke="#000" x2="-6" y1="0.5" y2="0.5"></line><text fill="#000" x="-9" y="0.5" dy="0.32em" style="font-size: 12px;">0.00%</text></g><g class="tick" opacity="1" transform="translate(0,278.57142857142856)"><line stroke="#000" x2="-6" y1="0.5" y2="0.5"></line><text fill="#000" x="-9" y="0.5" dy="0.32em" style="font-size: 12px;">0.50%</text></g><g class="tick" opacity="1" transform="translate(0,257.14285714285717)"><line stroke="#000" x2="-6" y1="0.5" y2="0.5"></line><text fill="#000" x="-9" y="0.5" dy="0.32em" style="font-size: 12px;">1.00%</text></g><g class="tick" opacity="1" transform="translate(0,235.71428571428572)"><line stroke="#000" x2="-6" y1="0.5" y2="0.5"></line><text fill="#000" x="-9" y="0.5" dy="0.32em" style="font-size: 12px;">1.50%</text></g><g class="tick" opacity="1" transform="translate(0,214.28571428571428)"><line stroke="#000" x2="-6" y1="0.5" y2="0.5"></line><text fill="#000" x="-9" y="0.5" dy="0.32em" style="font-size: 12px;">2.00%</text></g><g class="tick" opacity="1" transform="translate(0,192.85714285714286)"><line stroke="#000" x2="-6" y1="0.5" y2="0.5"></line><text fill="#000" x="-9" y="0.5" dy="0.32em" style="font-size: 12px;">2.50%</text></g><g class="tick" opacity="1" transform="translate(0,171.42857142857144)"><line stroke="#000" x2="-6" y1="0.5" y2="0.5"></line><text fill="#000" x="-9" y="0.5" dy="0.32em" style="font-size: 12px;">3.00%</text></g><g class="tick" opacity="1" transform="translate(0,150)"><line stroke="#000" x2="-6" y1="0.5" y2="0.5"></line><text fill="#000" x="-9" y="0.5" dy="0.32em" style="font-size: 12px;">3.50%</text></g><g class="tick" opacity="1" transform="translate(0,128.57142857142858)"><line stroke="#000" x2="-6" y1="0.5" y2="0.5"></line><text fill="#000" x="-9" y="0.5" dy="0.32em" style="font-size: 12px;">4.00%</text></g><g class="tick" opacity="1" transform="translate(0,107.14285714285717)"><line stroke="#000" x2="-6" y1="0.5" y2="0.5"></line><text fill="#000" x="-9" y="0.5" dy="0.32em" style="font-size: 12px;">4.50%</text></g><g class="tick" opacity="1" transform="translate(0,85.71428571428572)"><line stroke="#000" x2="-6" y1="0.5" y2="0.5"></line><text fill="#000" x="-9" y="0.5" dy="0.32em" style="font-size: 12px;">5.00%</text></g><g class="tick" opacity="1" transform="translate(0,64.28571428571428)"><line stroke="#000" x2="-6" y1="0.5" y2="0.5"></line><text fill="#000" x="-9" y="0.5" dy="0.32em" style="font-size: 12px;">5.50%</text></g><g class="tick" opacity="1" transform="translate(0,42.85714285714289)"><line stroke="#000" x2="-6" y1="0.5" y2="0.5"></line><text fill="#000" x="-9" y="0.5" dy="0.32em" style="font-size: 12px;">6.00%</text></g><g class="tick" opacity="1" transform="translate(0,21.428571428571445)"><line stroke="#000" x2="-6" y1="0.5" y2="0.5"></line><text fill="#000" x="-9" y="0.5" dy="0.32em" style="font-size: 12px;">6.50%</text></g><g class="tick" opacity="1" transform="translate(0,0)"><line stroke="#000" x2="-6" y1="0.5" y2="0.5"></line><text fill="#000" x="-9" y="0.5" dy="0.32em" style="font-size: 12px;">7.00%</text></g></g><g class="grid-lines" fill="none" font-size="10" font-family="sans-serif" text-anchor="end"><path class="domain" stroke="#000" d="M410,300.5H0.5V0.5H410"></path><g class="tick" opacity="1" transform="translate(0,300)"><line stroke="#000" x2="410" y1="0.5" y2="0.5" style="stroke: #ccc; fill: none;"></line></g><g class="tick" opacity="1" transform="translate(0,278.57142857142856)"><line stroke="#000" x2="410" y1="0.5" y2="0.5" style="stroke: #ccc; fill: none;"></line></g><g class="tick" opacity="1" transform="translate(0,257.14285714285717)"><line stroke="#000" x2="410" y1="0.5" y2="0.5" style="stroke: #ccc; fill: none;"></line></g><g class="tick" opacity="1" transform="translate(0,235.71428571428572)"><line stroke="#000" x2="410" y1="0.5" y2="0.5" style="stroke: #ccc; fill: none;"></line></g><g class="tick" opacity="1" transform="translate(0,214.28571428571428)"><line stroke="#000" x2="410" y1="0.5" y2="0.5" style="stroke: #ccc; fill: none;"></line></g><g class="tick" opacity="1" transform="translate(0,192.85714285714286)"><line stroke="#000" x2="410" y1="0.5" y2="0.5" style="stroke: #ccc; fill: none;"></line></g><g class="tick" opacity="1" transform="translate(0,171.42857142857144)"><line stroke="#000" x2="410" y1="0.5" y2="0.5" style="stroke: #ccc; fill: none;"></line></g><g class="tick" opacity="1" transform="translate(0,150)"><line stroke="#000" x2="410" y1="0.5" y2="0.5" style="stroke: #ccc; fill: none;"></line></g><g class="tick" opacity="1" transform="translate(0,128.57142857142858)"><line stroke="#000" x2="410" y1="0.5" y2="0.5" style="stroke: #ccc; fill: none;"></line></g><g class="tick" opacity="1" transform="translate(0,107.14285714285717)"><line stroke="#000" x2="410" y1="0.5" y2="0.5" style="stroke: #ccc; fill: none;"></line></g><g class="tick" opacity="1" transform="translate(0,85.71428571428572)"><line stroke="#000" x2="410" y1="0.5" y2="0.5" style="stroke: #ccc; fill: none;"></line></g><g class="tick" opacity="1" transform="translate(0,64.28571428571428)"><line stroke="#000" x2="410" y1="0.5" y2="0.5" style="stroke: #ccc; fill: none;"></line></g><g class="tick" opacity="1" transform="translate(0,42.85714285714289)"><line stroke="#000" x2="410" y1="0.5" y2="0.5" style="stroke: #ccc; fill: none;"></line></g><g class="tick" opacity="1" transform="translate(0,21.428571428571445)"><line stroke="#000" x2="410" y1="0.5" y2="0.5" style="stroke: #ccc; fill: none;"></line></g><g class="tick" opacity="1" transform="translate(0,0)"><line stroke="#000" x2="410" y1="0.5" y2="0.5" style="stroke: #ccc; fill: none;"></line></g></g><g class="lines"><path class="line" d="M2.500983864620228,300L4.921290830381739,300L7.425636232454415,300L9.845943198215926,300L12.346927062836153,300L14.847910927456383,300L17.10686409550046,300L19.60448642266824,300L22.024793388429753,300L24.52577725304998,300L26.946084218811492,300L29.447068083431716,300L31.948051948051948,300L34.36835891381346,300L36.87270431588613,300L39.293011281647644,300L41.793995146267875,300L44.2949790108881,300L46.55393217893218,300L49.05155450609996,300L51.47186147186147,300L53.972845336481704,300L56.39315230224321,300L58.89413616686343,300L61.39512003148367,300L63.815426997245176,300L66.31977239931786,300L68.74007936507935,300L71.24106322969959,300L73.74204709431982,300L76.0010002623639,300L78.49862258953168,300L80.91892955529319,300L83.41991341991341,300L85.84022038567494,300L88.34120425029516,300L90.84218811491539,300L93.2624950806769,300L95.76684048274957,300L98.18714744851108,300L100.68813131313132,300L103.18911517775153,300L105.52874524465435,300L108.02636757182212,300L110.44667453758363,300L112.94765840220386,300L115.36796536796538,300L117.8689492325856,300L120.36993309720583,300L122.79024006296734,300L125.29458546504002,300L127.71489243080153,300L130.21587629542174,300L132.71686016004196,300L134.97581332808605,300L137.47343565525384,299.9748536693143L139.89374262101535,299.9741157062571L142.39472648563557,299.9455166565L144.81503345139708,299.95119387908574L147.3160173160173,299.9747085369857L149.81700118063753,299.76598556914286L152.23730814639904,299.8831651041L154.74165354847173,299.82932629401427L157.16196051423324,299.4539497634143L159.66294437885347,298.9286853982286L162.16392824347372,298.92374545744286L164.42288141151778,299.0673317397429L166.92050373868557,299.2687515372857L169.34081070444705,298.4121646105286L171.8417945690673,298.20184628078573L174.2621015348288,298.0584016600714L176.76308539944904,298.0262292206143L179.26406926406926,297.53859865945714L181.68437622983078,296.68893406915714L184.18872163190346,295.94483599405714L186.60902859766497,295.28777380577145L189.1100124622852,294.83304772294287L191.61099632690542,291.5477734359429L193.8699494949495,291.3915482721L196.36757182211727,289.68234188117145L198.78787878787878,289.8026657086286L201.288862652499,287.9670886095429L203.70916961826055,285.8492440420714L206.21015348288077,285.6828927216L208.711137347501,281.93955577135716L211.1314443132625,280.8749959481143L213.63578971533516,277.0267238833714L216.05609668109668,274.8033098492571L218.5570805457169,272.6561444607857L221.05806441033712,273.7515760516714L223.39769447723995,268.89395738704286L225.8953168044077,267.34982456297143L228.31562377016922,265.0985604486857L230.81660763478945,261.0726440742429L233.236914600551,255.76421593907142L235.7378984651712,251.91060750634287L238.23888232979144,253.32570137528572L240.65918929555295,253.46388886607144L243.1635346976256,251.56241256385715L245.58384166338712,246.12132166718573L248.08482552800734,244.9758657489857L250.58580939262757,244.00616500277144L252.84476256067168,244.40688152657142L255.34238488783944,236.45447962825716L257.7626918536009,230.01647171404286L260.2636757182212,226.536436908L262.68398268398266,220.1001155179286L265.1849665486029,219.45915841084286L267.68595041322317,224.3367791755286L270.10625737898465,219.75746662495715L272.61060278105737,220.01952574958574L275.03090974681885,215.5233947808L277.5318936114391,211.20739056784288L280.0328774760593,207.7328522510143L282.29183064410336,204.69848724184288L284.78945297127115,202.03975067250002L287.2097599370327,198.83080166344286L289.7107438016529,192.12520549919998L292.1310507674144,186.84286990598574L294.6320346320346,178.65292965325716L297.13301849665487,177.59829136962858L299.55332546241635,181.6235565966L302.057670864489,181.13693091321426L304.47797783025055,172.05744163075718L306.97896169487075,169.0616765457L309.479945559491,166.34949636364286L311.7388987275351,163.88649115238573L314.2365210547029,168.57441079795717L316.6568280204644,157.0835239333286L319.15781188508464,155.09826412135715L321.5781188508461,152.80363084380002L324.0791027154664,140.25697469550002L326.5800865800866,142.7010292911429L329.0003935458481,145.9466452593429L331.50473894792077,139.89702585171432L333.9250459136823,131.798131599L336.4260297783025,124.43948108507146L338.92701364292276,125.83783461162858L341.26664370982553,115.73381060854285L343.7642660369933,104.73564556234288L346.18457300275486,106.56445261307144L348.68555686737506,98.0769715071857L351.1058638331366,87.7866309835286L353.6068476977568,86.0992720259143L356.10783156237704,86.9491856996143L358.5281385281385,93.09376840294286L361.0324839302112,92.97953815392859L363.4527908959727,86.63704098844289L365.953774760593,75.14991550358573L368.4547586252132,86.26111307558574L370.71371179325723,78.18499870354285L373.211334120425,72.05941422951432L375.6316410861865,73.27247159327146L378.13262495080676,75.05429550814287L380.55293191656824,66.39683337930003L383.0539157811885,60.86117756001428L385.5548996458087,54.29920517532861L387.97520661157023,68.12629473535716L390.47955201364294,65.54769587370001L392.8998589794044,54.12882382791432L395.4008428440247,42.68374006740004L397.90182670864493,48.97560781997146L400.160779876689,48.10497968035716L402.6584022038567,25.490519645571453L405.07870916961826,30.025894550485702L407.57969303423846,34.27662275914287L410,29.763095068071436" data-legend="reactjs" style="stroke: rgb(31, 119, 180); fill: none;"></path><path class="line" d="M2.500983864620228,300L4.921290830381739,300L7.425636232454415,300L9.845943198215926,300L12.346927062836153,300L14.847910927456383,300L17.10686409550046,300L19.60448642266824,300L22.024793388429753,300L24.52577725304998,300L26.946084218811492,300L29.447068083431716,300L31.948051948051948,300L34.36835891381346,300L36.87270431588613,300L39.293011281647644,300L41.793995146267875,300L44.2949790108881,300L46.55393217893218,300L49.05155450609996,300L51.47186147186147,300L53.972845336481704,300L56.39315230224321,300L58.89413616686343,300L61.39512003148367,300L63.815426997245176,300L66.31977239931786,300L68.74007936507935,300L71.24106322969959,300L73.74204709431982,300L76.0010002623639,300L78.49862258953168,300L80.91892955529319,300L83.41991341991341,300L85.84022038567494,300L88.34120425029516,300L90.84218811491539,300L93.2624950806769,300L95.76684048274957,300L98.18714744851108,300L100.68813131313132,300L103.18911517775153,300L105.52874524465435,300L108.02636757182212,300L110.44667453758363,300L112.94765840220386,300L115.36796536796538,300L117.8689492325856,300L120.36993309720583,300L122.79024006296734,300L125.29458546504002,300L127.71489243080153,300L130.21587629542174,300L132.71686016004196,300L134.97581332808605,300L137.47343565525384,299.9748536693143L139.89374262101535,300L142.39472648563557,300L144.81503345139708,300L147.3160173160173,300L149.81700118063753,300L152.23730814639904,300L154.74165354847173,299.9756180420143L157.16196051423324,300L159.66294437885347,300L162.16392824347372,300L164.42288141151778,300L166.92050373868557,300L169.34081070444705,299.97557176324284L171.8417945690673,300L174.2621015348288,299.9757300207857L176.76308539944904,299.9736830562857L179.26406926406926,300L181.68437622983078,299.9751047674714L184.18872163190346,299.9483418598286L186.60902859766497,299.9722810224L189.1100124622852,299.9740354157143L191.61099632690542,299.92316157672855L193.8699494949495,299.52301454807144L196.36757182211727,299.68183433117144L198.78787878787878,299.04762937144284L201.288862652499,298.62218571865714L203.70916961826055,298.58713201045714L206.21015348288077,298.28765494345714L208.711137347501,298.1308411215L211.1314443132625,297.1752415323L213.63578971533516,294.5774353528714L216.05609668109668,289.1156303718429L218.5570805457169,278.23457706424284L221.05806441033712,275.3562831926143L223.39769447723995,270.5220973585286L225.8953168044077,266.51545558744283L228.31562377016922,257.22862800085716L230.81660763478945,248.73783129291428L233.236914600551,242.68899799842856L235.7378984651712,236.9198518056857L238.23888232979144,226.82397914155715L240.65918929555295,216.55083358697144L243.1635346976256,218.9991211121143L245.58384166338712,213.03698727282858L248.08482552800734,211.1732281152L250.58580939262757,202.31335799995713L252.84476256067168,203.19499447290002L255.34238488783944,200.32265173392858L257.7626918536009,197.6218431469286L260.2636757182212,189.54982635227145L262.68398268398266,181.66634578362857L265.1849665486029,176.33492826857145L267.68595041322317,176.8571072718857L270.10625737898465,178.17377658750002L272.61060278105737,169.83971476024286L275.03090974681885,172.51116978372858L277.5318936114391,170.13068796732858L280.0328774760593,174.6207376282286L282.29183064410336,177.83782971895715L284.78945297127115,171.8550994655143L287.2097599370327,168.47487519625716L289.7107438016529,165.5986166875286L292.1310507674144,168.86590323398573L294.6320346320346,163.33036079764287L297.13301849665487,168.87465030235714L299.55332546241635,170.9358548493L302.057670864489,174.7252300911L304.47797783025055,170.9074699967143L306.97896169487075,173.22075701082858L309.479945559491,169.8197824101L311.7388987275351,172.46439361247144L314.2365210547029,178.08733582418574L316.6568280204644,175.8309041807143L319.15781188508464,169.1694986803286L321.5781188508461,176.72304083168575L324.0791027154664,179.6144112018L326.5800865800866,173.02410499302857L329.0003935458481,179.8110870267857L331.50473894792077,175.85223092794288L333.9250459136823,178.5245060051143L336.4260297783025,189.79110906805715L338.92701364292276,180.5992419947143L341.26664370982553,189.8119249770857L343.7642660369933,195.98044990765715L346.18457300275486,199.46640336072858L348.68555686737506,201.85906185625714L351.1058638331366,192.94186137445718L353.6068476977568,202.7617906919143L356.10783156237704,202.85861006507145L358.5281385281385,209.4689884754143L361.0324839302112,215.96199073577142L363.4527908959727,214.79032591114287L365.953774760593,217.85155610391428L368.4547586252132,219.43738635132857L370.71371179325723,214.05466908681433L373.211334120425,220.7852555294143L375.6316410861865,215.75468951597145L378.13262495080676,213.06025881141431L380.55293191656824,212.15547588535713L383.0539157811885,211.76567856870003L385.5548996458087,210.67365050472858L387.97520661157023,217.00427581564287L390.47955201364294,222.05096341902856L392.8998589794044,220.40211528497144L395.4008428440247,221.50919657730003L397.90182670864493,220.0331732813143L400.160779876689,221.5319622459L402.6584022038567,227.6906384594143L405.07870916961826,224.06883861282859L407.57969303423846,220.8096683682857L410,225.34739935114288" data-legend="angular" style="stroke: rgb(255, 127, 14); fill: none;"></path><path class="line" d="M2.500983864620228,300L4.921290830381739,300L7.425636232454415,300L9.845943198215926,300L12.346927062836153,300L14.847910927456383,300L17.10686409550046,300L19.60448642266824,300L22.024793388429753,300L24.52577725304998,300L26.946084218811492,300L29.447068083431716,300L31.948051948051948,300L34.36835891381346,300L36.87270431588613,300L39.293011281647644,300L41.793995146267875,300L44.2949790108881,300L46.55393217893218,300L49.05155450609996,300L51.47186147186147,300L53.972845336481704,300L56.39315230224321,300L58.89413616686343,300L61.39512003148367,300L63.815426997245176,300L66.31977239931786,300L68.74007936507935,300L71.24106322969959,300L73.74204709431982,300L76.0010002623639,300L78.49862258953168,300L80.91892955529319,300L83.41991341991341,300L85.84022038567494,300L88.34120425029516,300L90.84218811491539,300L93.2624950806769,300L95.76684048274957,300L98.18714744851108,300L100.68813131313132,300L103.18911517775153,300L105.52874524465435,300L108.02636757182212,300L110.44667453758363,300L112.94765840220386,300L115.36796536796538,300L117.8689492325856,300L120.36993309720583,300L122.79024006296734,300L125.29458546504002,300L127.71489243080153,300L130.21587629542174,300L132.71686016004196,300L134.97581332808605,300L137.47343565525384,300L139.89374262101535,300L142.39472648563557,300L144.81503345139708,300L147.3160173160173,300L149.81700118063753,300L152.23730814639904,300L154.74165354847173,300L157.16196051423324,300L159.66294437885347,300L162.16392824347372,300L164.42288141151778,299.97927403868573L166.92050373868557,300L169.34081070444705,299.9022870529714L171.8417945690673,300L174.2621015348288,299.92719006227145L176.76308539944904,300L179.26406926406926,299.94818102442855L181.68437622983078,299.9502095349L184.18872163190346,299.9225127897L186.60902859766497,299.9168430672L189.1100124622852,299.8961416628143L191.61099632690542,299.97438719224283L193.8699494949495,299.95457281414286L196.36757182211727,299.88636940401426L198.78787878787878,299.74448592895715L201.288862652499,299.15034785987143L203.70916961826055,299.0286532572L206.21015348288077,299.00113205035717L208.711137347501,298.7619856779L211.1314443132625,299.1201571986L213.63578971533516,298.42648793725715L216.05609668109668,298.02329838938573L218.5570805457169,296.97238914257144L221.05806441033712,297.29492224812856L223.39769447723995,297.36498399355713L225.8953168044077,295.9598975922L228.31562377016922,296.6011016385L230.81660763478945,296.50591805245716L233.236914600551,296.13853376708573L235.7378984651712,294.8127226305857L238.23888232979144,294.17516856711427L240.65918929555295,292.20285730735714L243.1635346976256,290.0754790268571L245.58384166338712,288.0299225277429L248.08482552800734,287.1740897030571L250.58580939262757,287.4279391206L252.84476256067168,285.10361999207146L255.34238488783944,285.88146403328574L257.7626918536009,283.58239296672855L260.2636757182212,282.89005220357143L262.68398268398266,281.5412013862286L265.1849665486029,281.0965620134572L267.68595041322317,276.5403981993857L270.10625737898465,279.44977275214285L272.61060278105737,277.7775122761714L275.03090974681885,276.39536718154284L277.5318936114391,276.8437510964143L280.0328774760593,273.2784386691L282.29183064410336,270.1854211466143L284.78945297127115,269.8419901445143L287.2097599370327,270.0315959983714L289.7107438016529,267.8873887824857L292.1310507674144,266.27282083594287L294.6320346320346,262.1732647213714L297.13301849665487,260.38263694615716L299.55332546241635,262.17365305650003L302.057670864489,261.06559953274285L304.47797783025055,260.5395447864857L306.97896169487075,257.9438436884143L309.479945559491,258.94977873222854L311.7388987275351,256.08545533020003L314.2365210547029,257.8713320265857L316.6568280204644,258.0552487880143L319.15781188508464,252.89334430607144L321.5781188508461,254.20237967464286L324.0791027154664,249.5514984557143L326.5800865800866,249.26044505597145L329.0003935458481,250.69610241411428L331.50473894792077,254.42750836277145L333.9250459136823,247.87834793331427L336.4260297783025,249.02986448322858L338.92701364292276,250.07311468564285L341.26664370982553,249.93972428485716L343.7642660369933,248.49884909005715L346.18457300275486,249.57082623587144L348.68555686737506,252.5286968435143L351.1058638331366,250.1333773580143L353.6068476977568,248.6393261573143L356.10783156237704,244.6434684795L358.5281385281385,249.50157597801427L361.0324839302112,248.59717802245714L363.4527908959727,247.3126096982143L365.953774760593,248.1590489441143L368.4547586252132,249.48825935931427L370.71371179325723,248.4792426981L373.211334120425,247.29587457561428L375.6316410861865,248.53107848395715L378.13262495080676,247.89639067337143L380.55293191656824,246.98737662257145L383.0539157811885,250.85599638424287L385.5548996458087,245.9958064464L387.97520661157023,249.18004347252855L390.47955201364294,250.2832814043L392.8998589794044,252.39639294145715L395.4008428440247,253.83074131225715L397.90182670864493,255.12833234284287L400.160779876689,257.7545980950857L402.6584022038567,256.65151240122856L405.07870916961826,258.9071311235572L407.57969303423846,257.7714264814286L410,261.9544146754714" data-legend="vue.js" style="stroke: rgb(44, 160, 44); fill: none;"></path></g></g><g transform="translate(20, 150)"><text transform="rotate(-90)" x="-50" y="0" dy="1em" class="axis-label y-axis-label" style="text-anchor: middle; font-weight: bold;">% of Stack Overflow questions that month</text></g><g class="legend" transform="translate(530, 30)" style="font-size: 12px;"><text class="legend-title" style="font-weight: bold;">Tag</text><g class="legend-items" transform="translate(0,20)"><text y="0em" x="1em">reactjs</text><text y="1em" x="1em">angular</text><text y="2em" x="1em">vue.js</text><circle cy="-0.25em" cx="0" r="0.4em" style="fill: rgb(31, 119, 180);"></circle><circle cy="0.75em" cx="0" r="0.4em" style="fill: rgb(255, 127, 14);"></circle><circle cy="1.75em" cx="0" r="0.4em" style="fill: rgb(44, 160, 44);"></circle></g><rect class="legend-box"></rect></g></svg>
        